:version 1.10
:name ASF
:units
  mass 1
  length 1
  angle deg
:documentation
  ASF file generated by Kaydara
:root
  axis xyz
  order  tx ty tz rx ry rz
  position 0 0 0
  orientation 0 0 0
:bonedata
  begin
    id 1
    name LeftUpLegDummy
    direction 1 -2.30186e-007 -8.31532e-007
    length 2.93387
    axis 0 0 0 xyz
  end
  begin
    id 2
    name LeftUpLeg
    direction -1.82929e-007 -1 -1.48925e-009
    length 17.3336
    axis -3.48766 0.00143442 -0.000521554 xyz
    dof rx ry rz
  end
  begin
    id 3
    name LeftLeg
    direction -1.82929e-007 -1 -5.23717e-011
    length 14.9995
    axis 3.68178 -0.00654042 -0.000282425 xyz
    dof rx ry rz
  end
  begin
    id 4
    name LeftFoot
    direction 8.31532e-007 -4.54534e-011 1
    length 6.74421
    axis 1.87234e-006 4.66016e-005 -5.96866e-006 xyz
    dof rx ry rz
  end
  begin
    id 5
    name LeftToes
    direction 0.00818058 -0.00485161 0.999955
    length 3.85048
    axis 1.06247e-005 4.65869e-005 -5.96999e-006 xyz
    dof rx ry rz
  end
  begin
    id 6
    name SpineDummy
    direction -5.8607e-008 0.943407 -0.331637
    length 5.93572
    axis 0 0 0 xyz
  end
  begin
    id 7
    name Spine
    direction -1.04988e-007 0.999988 0.00495137
    length 10.1015
    axis -0.001389 0.000121417 6.61666e-006 xyz
    dof rx ry rz
  end
  begin
    id 8
    name Spine1
    direction 0 0 0
    length 0
    axis -0.001389 0.00012144 6.56766e-006 xyz
    dof rx ry rz
  end
  begin
    id 9
    name RightShoulderDummy
    direction -0.98348 0.17941 -0.0240696
    length 3.59882
    axis -0.001389 0.00012144 6.56766e-006 xyz
  end
  begin
    id 10
    name RightShoulder
    direction -0.978693 0.204882 0.0135597
    length 2.70001
    axis 0.215806 0.000203631 -0.00679732 xyz
    dof rx ry rz
  end
  begin
    id 11
    name RightArm
    direction -1 3.85509e-006 8.31394e-007
    length 10.2459
    axis -23.2009 -0.134239 -0.964098 xyz
    dof rx ry rz
  end
  begin
    id 12
    name RightForeArm
    direction -1 3.85569e-006 8.3129e-007
    length 8.16799
    axis -9.92322 0.0658061 0.17887 xyz
    dof rx ry rz
  end
  begin
    id 13
    name RightHand
    direction -0.992843 -0.0414604 0.112003
    length 5.28593
    axis -0.00960638 0.00330669 -0.185225 xyz
    dof rx ry rz
  end
  begin
    id 14
    name LeftShoulder1Dummy
    direction 0.983523 0.179172 -0.0240748
    length 3.59866
    axis -0.001389 0.00012144 6.56766e-006 xyz
  end
  begin
    id 15
    name LeftShoulder1
    direction 0.978627 0.205195 0.0135605
    length 2.70019
    axis -0.001389 0.00012144 6.57583e-006 xyz
    dof rx ry rz
  end
  begin
    id 16
    name LeftArm
    direction 1 3.51895e-006 -8.60188e-007
    length 10.2459
    axis -23.1894 0.134785 0.967513 xyz
    dof rx ry rz
  end
  begin
    id 17
    name LeftForeArm
    direction 1 3.51921e-006 -7.32029e-007
    length 8.16799
    axis -9.91835 -0.0656957 -0.177789 xyz
    dof rx ry rz
  end
  begin
    id 18
    name LeftHand
    direction 0.992938 -0.0411636 0.11126
    length 5.32135
    axis -0.00960237 -0.00340661 0.185177 xyz
    dof rx ry rz
  end
  begin
    id 19
    name HEadDummy
    direction 1.01974e-006 0.999861 -0.016675
    length 2.99946
    axis -0.001389 0.00012144 6.56766e-006 xyz
  end
  begin
    id 20
    name HEad
    direction -0.0222689 0.980941 0.193023
    length 5.12695
    axis -0.001389 0.00012144 6.56766e-006 xyz
    dof rx ry rz
  end
  begin
    id 21
    name RightUpLegDummy
    direction -1 2.30186e-007 8.31532e-007
    length 2.93387
    axis 0 0 0 xyz
  end
  begin
    id 22
    name RightUpLeg
    direction -1.82966e-007 -1 1.56832e-007
    length 17.3336
    axis -3.4909 -0.000906625 0.00028951 xyz
    dof rx ry rz
  end
  begin
    id 23
    name RightLeg
    direction -1.82786e-007 -1 -1.80317e-007
    length 14.9995
    axis 3.68513 0.0193739 -0.131021 xyz
    dof rx ry rz
  end
  begin
    id 24
    name RightFoot
    direction 8.31721e-007 -4.63324e-011 1
    length 6.74421
    axis 4.81691e-005 -0.120479 -0.188785 xyz
    dof rx ry rz
  end
  begin
    id 25
    name RightToes
    direction 0.00124746 -0.014064 0.9999
    length 3.85082
    axis 0.000481921 0.542163 -0.142575 xyz
    dof rx ry rz
  end
:hierarchy
  begin
    root LeftUpLegDummy SpineDummy RightUpLegDummy
    LeftUpLegDummy LeftUpLeg
    LeftUpLeg LeftLeg
    LeftLeg LeftFoot
    LeftFoot LeftToes
    SpineDummy Spine
    Spine Spine1
    Spine1 RightShoulderDummy LeftShoulder1Dummy HEadDummy
    RightShoulderDummy RightShoulder
    RightShoulder RightArm
    RightArm RightForeArm
    RightForeArm RightHand
    LeftShoulder1Dummy LeftShoulder1
    LeftShoulder1 LeftArm
    LeftArm LeftForeArm
    LeftForeArm LeftHand
    HEadDummy HEad
    RightUpLegDummy RightUpLeg
    RightUpLeg RightLeg
    RightLeg RightFoot
    RightFoot RightToes
  end

:SAMPLES-PER-SECOND 30
:FULLY-SPECIFIED
:DEGREES
99
root  21.0687 34.0735 14.4435 8.86428 29.2354 1.70387
LeftUpLeg  -4.62526 8.4083 3.21213
LeftLeg  12.7008 0.891725 0.14006
LeftFoot  -3.51003 -0.0009135 -0.0298226
LeftToes  -18.3974 2.48695e-006 -1.03773e-007
Spine  4.44932 -0.933305 0.441051
Spine1  8.87293 -1.95918 1.00551
RightShoulder  0.00136262 4.97404 4.94474
RightArm  -41.1152 -23.0258 75.1635
RightForeArm  24.2395 28.6577 5.52638
RightHand  0.29319 -5.89862 -5.31017
LeftShoulder1  0.00192051 4.1007 -8.12697
LeftArm  -63.3747 22.3676 -44.3769
LeftForeArm  21.5636 -62.6773 -20.0403
LeftHand  0.295697 1.89808 17.2757
HEad  19.2094 -10.0194 -1.62303
RightUpLeg  -29.6488 -14.4594 -2.11314
RightLeg  4.00227 4.16802 0.0244251
RightFoot  5.24585 -0.00761156 0.402335
RightToes  -31.5583 -0.154798 -0.26265
100
root  21.2882 33.9388 15.2911 9.27944 30.3926 2.40493
LeftUpLeg  -3.63552 7.7857 3.39177
LeftLeg  13.2811 0.36373 0.0599732
LeftFoot  -4.19473 -0.000253713 -0.00693687
LeftToes  -20.7712 2.48695e-006 -1.03773e-007
Spine  4.35913 -0.905371 0.551078
Spine1  8.69928 -1.89787 1.18208
RightShoulder  0.00459624 4.62373 5.17176
RightArm  -40.434 -22.5159 75.2298
RightForeArm  23.1231 31.0849 6.10001
RightHand  0.30837 -5.72271 -5.78711
LeftShoulder1  0.000356729 4.01605 -8.00053
LeftArm  -64.2166 25.8705 -47.7629
LeftForeArm  22.9441 -64.3963 -21.6911
LeftHand  0.302348 1.77109 18.9311
HEad  19.4009 -11.4597 -1.31891
RightUpLeg  -29.0927 -15.5376 -3.01901
RightLeg  2.478 3.04995 -0.0633375
RightFoot  4.95749 -0.000651982 0.280471
RightToes  -28.6233 -0.134557 -0.242285
101
root  21.4633 33.7961 16.2494 9.59692 31.6989 3.08589
LeftUpLeg  -2.53987 7.25974 3.89496
LeftLeg  14.0034 -0.488133 -0.0905264
LeftFoot  -4.64499 0.00199997 0.0559208
LeftToes  -23.7432 2.48695e-006 -1.03773e-007
Spine  4.24711 -0.821777 0.626202
Spine1  8.48194 -1.72084 1.29855
RightShoulder  0.00749874 4.23104 5.26361
RightArm  -40.3211 -22.1653 75.6347
RightForeArm  22.4289 33.0154 6.57819
RightHand  0.301776 -5.46924 -5.93453
LeftShoulder1  -0.000769954 3.8675 -7.7855
LeftArm  -65.0679 29.1299 -50.5037
LeftForeArm  23.725 -64.851 -22.1669
LeftHand  0.182553 1.01019 19.9818
HEad  19.8192 -13.1426 -0.967424
RightUpLeg  -27.7701 -15.8064 -4.39723
RightLeg  1.94613 1.9172 -0.0575421
RightFoot  4.11253 0.00806129 0.152999
RightToes  -25.5458 -0.114482 -0.219848
102
root  21.5876 33.6725 17.3329 9.52309 32.9242 3.0978
LeftUpLeg  -1.38863 6.40492 5.19198
LeftLeg  14.9202 -1.07121 -0.214576
LeftFoot  -4.7377 0.00404922 0.0978744
LeftToes  -27.5522 2.48695e-006 -1.03773e-007
Spine  4.08006 -0.667426 0.843684
Spine1  8.15113 -1.41049 1.687
RightShoulder  0.00962698 3.8403 5.1999
RightArm  -40.0853 -21.9669 76.0699
RightForeArm  22.0616 34.0886 6.85344
RightHand  0.294847 -5.34491 -5.93311
LeftShoulder1  -0.00135855 3.40198 -7.30543
LeftArm  -66.6072 32.8022 -52.859
LeftForeArm  23.9787 -64.7288 -22.038
LeftHand  -0.0870912 -0.475499 20.6842
HEad  20.3888 -14.6802 -0.727172
RightUpLeg  -25.8706 -15.7324 -5.00007
RightLeg  1.73337 -0.311234 0.011133
RightFoot  6.53472 0.0233468 -0.0314079
RightToes  -31.8508 -0.156871 -0.264621
103
root  21.6578 33.5879 18.5407 9.02723 33.6603 2.43388
LeftUpLeg  -0.276363 5.12986 7.06758
LeftLeg  16.2852 -0.835871 -0.188788
LeftFoot  -4.2961 0.00231332 0.061666
LeftToes  -32.0759 2.48695e-006 -1.03773e-007
Spine  3.97592 -0.463526 1.22403
Spine1  7.93791 -1.02059 2.40536
RightShoulder  0.0105179 3.71187 4.94938
RightArm  -39.3031 -21.6832 76.269
RightForeArm  21.922 34.5239 6.96713
RightHand  0.288696 -5.30541 -5.84774
LeftShoulder1  -0.00130806 3.01289 -6.70431
LeftArm  -68.3841 36.5437 -54.9833
LeftForeArm  23.8424 -63.5314 -20.8356
LeftHand  -0.490928 -2.49984 21.9073
HEad  20.7347 -15.6375 -0.753122
RightUpLeg  -23.9809 -17.1232 -3.87933
RightLeg  0.745987 -0.961305 0.0496131
RightFoot  13.3581 0.0722461 -0.239379
RightToes  -38.1798 -0.204108 -0.304611
104
root  21.6823 33.5934 19.7348 8.3169 33.1197 1.43819
LeftUpLeg  0.247536 3.29244 8.68812
LeftLeg  19.1238 1.06463 0.291815
LeftFoot  -3.01138 -0.00186536 -0.0709748
LeftToes  -37.4598 2.48695e-006 -1.03773e-007
Spine  4.04816 -0.0527567 1.63751
Spine1  8.06914 -0.23652 3.21931
RightShoulder  0.0107569 3.7737 4.87431
RightArm  -37.7219 -20.944 75.7652
RightForeArm  22.2932 34.6735 7.00649
RightHand  0.274615 -5.2871 -5.56551
LeftShoulder1  0.000525008 2.7552 -6.46722
LeftArm  -69.8725 39.6882 -56.5602
LeftForeArm  24.6719 -61.8368 -19.3116
LeftHand  -0.871171 -3.81745 25.3764
HEad  20.6397 -15.7774 -1.08158
RightUpLeg  -23.6075 -21.3142 -1.00521
RightLeg  1.93126 3.26114 -0.0990128
RightFoot  17.9414 -0.0934052 0.969202
RightToes  -44.0824 -0.251889 -0.337003
105
root  21.6826 33.7048 20.854 7.12515 32.0037 -0.136595
LeftUpLeg  -0.649344 1.43491 10.412
LeftLeg  25.0533 3.32402 1.29679
LeftFoot  -0.81436 -0.000542292 -0.0763152
LeftToes  -43.8008 2.48695e-006 -1.03773e-007
Spine  4.29531 0.3893 2.16372
Spine1  8.53516 0.584292 4.28227
RightShoulder  0.010548 3.88321 5.1001
RightArm  -35.8472 -20.0765 74.5488
RightForeArm  23.7104 35.1953 7.14487
RightHand  0.275991 -5.33774 -5.53868
LeftShoulder1  0.00358065 2.49763 -6.16166
LeftArm  -71.3813 42.4951 -58.4404
LeftForeArm  25.2953 -60.5461 -18.2675
LeftHand  -1.25017 -4.74049 29.2035
HEad  20.6132 -15.389 -1.32851
RightUpLeg  -23.6281 -25.0977 2.22719
RightLeg  4.66915 7.88868 0.137444
RightFoot  17.408 -0.297908 2.3232
RightToes  -43.515 -0.247154 -0.334105
106
root  21.7077 33.888 21.8586 6.32305 31.2365 -1.11529
LeftUpLeg  -3.59836 -0.272788 11.3466
LeftLeg  34.1029 4.53244 2.65242
LeftFoot  0.958586 -0.000419898 0.0501855
LeftToes  -37.9798 2.48695e-006 -1.03773e-007
Spine  4.59591 0.604212 2.6367
Spine1  9.09515 0.94277 5.26194
RightShoulder  0.00984422 3.87713 4.96427
RightArm  -35.0245 -19.5646 73.4974
RightForeArm  24.8947 36.5961 7.52577
RightHand  0.263945 -5.20466 -5.42551
LeftShoulder1  0.00712754 2.21431 -6.01528
LeftArm  -72.8533 44.1004 -60.1002
LeftForeArm  25.6568 -56.9037 -15.7468
LeftHand  -1.88095 -6.03632 34.2546
HEad  20.8003 -14.8162 -1.88446
RightUpLeg  -21.9875 -26.248 3.73872
RightLeg  4.89465 9.87772 0.210627
RightFoot  16.0395 -0.326808 2.69668
RightToes  -41.3684 -0.229506 -0.322721
107
root  21.757 34.0537 22.7842 6.1216 29.8952 -1.29535
LeftUpLeg  -7.80268 -0.113201 11.6271
LeftLeg  44.4618 4.44905 3.82188
LeftFoot  2.65536 -0.00515899 0.222586
LeftToes  -18.6225 2.48695e-006 -1.03773e-007
Spine  4.85232 0.915062 2.80282
Spine1  9.57844 1.51567 5.6607
RightShoulder  0.00884029 3.87097 4.74312
RightArm  -34.7234 -19.8625 72.6592
RightForeArm  23.7424 38.8149 8.15982
RightHand  0.244648 -4.95723 -5.27022
LeftShoulder1  0.0104454 2.09046 -6.02352
LeftArm  -74.5214 44.6181 -60.9865
LeftForeArm  24.4366 -52.3023 -13.2197
LeftHand  -2.23095 -6.39598 38.0938
HEad  21.2388 -14.2395 -2.18229
RightUpLeg  -19.9554 -26.8905 4.45607
RightLeg  3.64724 11.6852 -0.00399745
RightFoot  15.3316 -0.36244 3.06968
RightToes  -40.4373 -0.221986 -0.317579
108
root  21.8223 34.1778 23.6522 6.47263 27.5227 -1.3068
LeftUpLeg  -12.1958 1.87303 11.7787
LeftLeg  51.8684 3.25143 3.62012
LeftFoot  3.18039 -0.00577362 0.207965
LeftToes  -12.9885 2.48695e-006 -1.03773e-007
Spine  4.9782 1.43615 2.77204
Spine1  9.81396 2.53036 5.679
RightShoulder  0.00771718 3.96345 4.67775
RightArm  -34.1064 -20.549 71.6857
RightForeArm  21.3859 40.7299 8.74053
RightHand  0.271147 -4.84707 -6.02168
LeftShoulder1  0.0133985 1.73528 -5.86056
LeftArm  -76.4092 44.7534 -60.9749
LeftForeArm  24.0627 -47.3139 -11.0374
LeftHand  -2.50327 -6.52512 41.6123
HEad  21.9445 -13.3932 -2.30181
RightUpLeg  -18.8243 -25.8599 4.94334
RightLeg  3.23863 12.8196 -0.0949228
RightFoot  14.6471 -0.366897 3.23158
RightToes  -37.4605 -0.198521 -0.300332
109
root  21.9578 34.2917 24.4912 6.81597 24.7963 -1.03991
LeftUpLeg  -15.3015 3.56213 11.302
LeftLeg  54.313 2.50046 3.03506
LeftFoot  0.411497 0.0001552 -0.0432284
LeftToes  -11.4048 2.48695e-006 -1.03773e-007
Spine  5.22887 1.75647 2.59312
Spine1  10.2932 3.14665 5.40351
RightShoulder  0.0065577 4.1082 4.58728
RightArm  -33.2368 -20.5364 70.7105
RightForeArm  20.2066 41.2051 8.88977
RightHand  0.293728 -4.52284 -7.12186
LeftShoulder1  0.0156851 1.77318 -5.89842
LeftArm  -78.3573 44.7778 -60.287
LeftForeArm  24.4722 -42.1263 -9.18166
LeftHand  -2.45798 -6.00943 44.1365
HEad  22.0844 -11.7946 -2.30979
RightUpLeg  -17.1667 -21.9756 4.30083
RightLeg  2.6064 11.3035 -0.208172
RightFoot  14.1721 -0.293259 2.73618
RightToes  -35.0545 -0.18023 -0.285516
110
root  22.1635 34.4005 25.3008 7.19902 22.3362 -0.895413
LeftUpLeg  -18.3505 4.26053 10.6676
LeftLeg  53.4402 2.41866 2.84633
LeftFoot  -0.418544 -0.000393653 -0.107784
LeftToes  -13.0506 2.48695e-006 -1.03773e-007
Spine  5.48636 1.88915 2.4026
Spine1  10.7788 3.38249 5.10658
RightShoulder  0.00551182 4.30111 4.53831
RightArm  -33.2729 -20.2622 69.8023
RightForeArm  20.4381 40.529 8.67783
RightHand  0.302865 -4.3288 -7.61907
LeftShoulder1  0.0171988 1.68146 -6.01842
LeftArm  -80.8914 45.3211 -60.031
LeftForeArm  25.3184 -36.8309 -7.58697
LeftHand  -2.34604 -5.49469 45.8976
HEad  21.814 -9.96343 -2.27085
RightUpLeg  -15.4458 -17.2604 3.46191
RightLeg  1.60846 8.70802 -0.31253
RightFoot  13.9839 -0.20516 2.05017
RightToes  -34.5425 -0.176419 -0.282265
111
root  22.422 34.4859 26.0739 7.46647 19.9145 -0.812996
LeftUpLeg  -21.091 4.03907 10.0801
LeftLeg  50.2266 2.2103 2.32346
LeftFoot  -1.56674 -0.00233622 -0.170869
LeftToes  -13.6149 2.48695e-006 -1.03773e-007
Spine  5.75731 2.0572 2.22395
Spine1  11.2991 3.68539 4.85797
RightShoulder  0.004692 4.51503 4.4521
RightArm  -34.2093 -20.2793 68.889
RightForeArm  20.5792 39.4631 8.35246
RightHand  0.315308 -4.46269 -7.6976
LeftShoulder1  0.0183049 1.41046 -6.06493
LeftArm  -85.1615 45.5094 -60.7157
LeftForeArm  27.8009 -31.061 -6.08997
LeftHand  -2.11323 -4.56124 49.3948
HEad  21.5994 -8.34621 -2.25902
RightUpLeg  -14.6908 -15.4028 3.12744
RightLeg  2.35449 9.00917 -0.2061
RightFoot  12.6761 -0.171556 1.92188
RightToes  -34.1559 -0.173561 -0.279788
112
root  22.7192 34.5473 26.8384 7.74454 17.4826 -0.628454
LeftUpLeg  -23.3792 3.41396 9.53606
LeftLeg  45.0713 2.19386 1.92592
LeftFoot  -1.09513 -0.0012904 -0.135029
LeftToes  -15.4743 2.48695e-006 -1.03773e-007
Spine  5.96254 2.34378 1.98063
Spine1  11.7121 4.24355 4.48882
RightShoulder  0.00430797 4.74445 4.59361
RightArm  -35.4081 -20.8643 67.7863
RightForeArm  20.2426 38.1518 7.96592
RightHand  0.348102 -4.72658 -8.03833
LeftShoulder1  0.0187421 1.07024 -6.06107
LeftArm  -91.1008 45.4868 -62.7965
LeftForeArm  25.7662 -26.7023 -5.08117
LeftHand  -0.951837 -2.01376 50.3758
HEad  21.5852 -7.06218 -2.15139
RightUpLeg  -14.3285 -15.3978 2.91991
RightLeg  3.82654 11.0572 0.030547
RightFoot  10.6837 -0.152544 2.00872
RightToes  -32.5747 -0.162047 -0.269457
113
root  23.0353 34.6002 27.5766 7.93022 15.6408 -0.473792
LeftUpLeg  -25.4266 2.7999 9.034
LeftLeg  38.6822 2.92953 2.04445
LeftFoot  0.369911 0.000151268 -0.0468693
LeftToes  -16.6198 2.48695e-006 -1.03773e-007
Spine  6.16438 2.67372 1.83348
Spine1  12.1436 4.90021 4.28535
RightShoulder  0.00446386 4.96737 4.8429
RightArm  -36.7123 -21.908 66.4591
RightForeArm  19.7275 36.655 7.54191
RightHand  0.395994 -4.95083 -8.75898
LeftShoulder1  0.018249 0.967502 -6.34357
LeftArm  -94.9008 44.5946 -66.2695
LeftForeArm  16.3885 -24.5351 -4.60907
LeftHand  0.720872 1.56136 49.0009
HEad  21.4693 -6.1445 -2.2208
RightUpLeg  -13.5083 -14.9449 2.39744
RightLeg  4.57423 12.3107 0.193713
RightFoot  9.20694 -0.125896 1.94086
RightToes  -32.2259 -0.159546 -0.267135
